<?xml version="1.0" encoding="UTF-8" standalone="no"?>
<!-- Created with Inkscape (http://www.inkscape.org/) -->

<svg
   width="9.5in"
   height="4.125in"
   viewBox="0 0 911.99999 396"
   version="1.1"
   id="svg5"
   inkscape:version="1.1.2 (0a00cf5339, 2022-02-04)"
   sodipodi:docname="marvel-logo.svg"
   xmlns:inkscape="http://www.inkscape.org/namespaces/inkscape"
   xmlns:sodipodi="http://sodipodi.sourceforge.net/DTD/sodipodi-0.dtd"
   xmlns="http://www.w3.org/2000/svg"
   xmlns:svg="http://www.w3.org/2000/svg">
  <sodipodi:namedview
     id="namedview7"
     pagecolor="#ffffff"
     bordercolor="#666666"
     borderopacity="1.0"
     inkscape:pageshadow="2"
     inkscape:pageopacity="0.0"
     inkscape:pagecheckerboard="0"
     inkscape:document-units="mm"
     showgrid="false"
     units="in"
     inkscape:zoom="1.0289025"
     inkscape:cx="455.33954"
     inkscape:cy="201.67119"
     inkscape:window-width="1366"
     inkscape:window-height="699"
     inkscape:window-x="0"
     inkscape:window-y="0"
     inkscape:window-maximized="1"
     inkscape:current-layer="layer1" />
  <defs
     id="defs2" />
  <g
     inkscape:label="Layer 1"
     inkscape:groupmode="layer"
     id="layer1">
    <path
       d="M 0.52214326,395.86477 H 911.92733 V 1.0021582 H 0.52214326 Z"
       style="fill:#e50b14;stroke-width:7.29067"
       id="path1283" />
    <path
       d="m 769.25635,108.24918 h -48.61422 v 65.28606 h 48.61422 v 52.7723 h -48.61422 v 66.28714 h 48.61422 V 344.5804 H 666.82454 V 82.649616 L 623.63667,344.5804 h -63.18362 c 0,0 -32.2608,-185.4896 -32.2608,-185.91867 v 0 c 5.20335,29.96152 -14.3464,61.28167 -31.66615,73.6524 l 34.1935,112.05174 h -53.29725 l -26.09112,-95.6766 -12.56239,1.78768 v 93.81742 H 335.89105 l -6.31837,-44.47746 H 287.4255 l -6.31836,44.47746 H 176.44533 V 205.28443 L 152.13823,344.5804 H 123.29675 L 98.617996,205.28443 V 344.5804 H 44.354402 V 55.548398 H 113.26171 L 137.42016,204.85537 162.2476,55.548398 h 68.90731 V 321.62659 L 272.55876,55.834427 h 71.95499 L 384.5796,312.40217 V 55.834427 h 55.00691 a 86.896056,83.591884 0 0 1 78.34769,46.980213 l -6.16969,-46.980213 h 54.93257 L 591.52453,231.81359 616.57498,55.834427 h 152.38404 z"
       style="fill:#ffffff;stroke-width:7.29067"
       id="path1285" />
    <path
       d="m 439.06618,107.10508 v 0 92.95932 a 29.733466,28.602868 0 0 0 12.78538,-2.93179 c 12.63674,-5.93511 23.41512,-20.66558 23.41512,-44.04841 0,-44.76351 -31.66615,-45.97912 -35.90317,-45.97912"
       style="fill:#e50b14;stroke-width:7.29067"
       id="path1287" />
    <path
       d="m 293.81819,254.12382 h 30.32814 l -15.4614,-123.56439 z"
       style="fill:#e50b14;stroke-width:7.29067"
       id="path1289" />
    <path
       d="M 878.60118,344.50889 H 778.69672 V 55.548398 H 832.5143 V 292.52318 h 46.08688 z"
       style="fill:#ffffff;stroke-width:7.29067"
       id="path1291" />
  </g>
</svg>
