<svg width="1936" height="444" viewBox="0 0 1936 444" fill="none" xmlns="http://www.w3.org/2000/svg">
<path d="M0 404V40C0 17.9086 17.9086 0 40 0H109.509C113.808 0 118.079 0.693113 122.158 2.05267L164.374 16.1247C171.876 18.6254 178.236 23.7273 182.305 30.5083C191.969 46.6142 213.075 51.4725 228.808 41.2122L282.04 6.49558C288.539 2.25685 296.131 0 303.891 0H371.315C384.289 0 396.457 6.29232 403.956 16.8793L448.044 79.1207C455.543 89.7077 467.711 96 480.685 96H522.158C528.623 96 534.992 97.567 540.718 100.567L596.474 129.772C608.63 136.139 623.201 135.831 635.076 128.956L677.546 104.368C686.795 99.0133 697.802 97.5824 708.113 100.394L763.116 115.395C773.879 118.331 785.38 116.638 794.841 110.725L833.705 86.4343C840.417 82.2393 845.734 76.1471 848.982 68.929L869.387 23.5854C875.846 9.23138 890.123 0 905.863 0H1176C1198.09 0 1216 17.9086 1216 40V46.6169C1216 65.9484 1229.82 82.5136 1248.84 85.9717L1304 96L1391.52 117.88C1397.11 119.277 1402.93 119.45 1408.59 118.389L1520.74 97.3612C1525.54 96.4613 1530.46 96.4478 1535.27 97.3213L1641.6 116.655C1653.26 118.775 1665.26 115.616 1674.37 108.029L1693.91 91.7423C1702.86 84.2873 1714.61 81.101 1726.09 83.0154L1793.39 94.232C1800.34 95.3901 1806.86 98.3627 1812.29 102.849L1887.16 164.694C1892.94 169.468 1897.26 175.771 1899.63 182.883L1933.95 285.842C1935.31 289.921 1936 294.192 1936 298.491V340.616C1936 352.858 1930.39 364.426 1920.79 372.011L1865.75 415.459C1861.95 418.461 1857.63 420.748 1853.01 422.207L1789.88 442.143C1785.98 443.374 1781.92 444 1777.83 444H1713.41C1700.03 444 1687.54 437.316 1680.13 426.188L1676.42 420.632C1666.66 405.997 1648.49 399.452 1631.65 404.506L1580 420L1497.17 442.591C1493.74 443.526 1490.2 444 1486.64 444H1448.72C1433.57 444 1419.72 435.44 1412.94 421.889L1402.9 401.806C1400.98 397.96 1398.45 394.45 1395.41 391.41L1370.73 366.732C1353.49 349.487 1324 361.7 1324 386.089C1324 392.493 1321.75 398.694 1317.66 403.614L1295.99 429.607C1288.39 438.727 1277.14 444 1265.27 444H1200C1177.91 444 1160 426.091 1160 404V402.166C1160 398.079 1159.37 394.017 1158.14 390.12L1150.41 365.646C1142.91 341.867 1115.71 330.68 1093.64 342.294L1081.37 348.753C1068.23 355.669 1060 369.298 1060 384.149V404C1060 426.091 1042.09 444 1020 444H954.282C940.43 444 927.563 436.833 920.272 425.054L910.598 409.427C895.838 385.585 861.764 383.935 844.77 406.24L828.006 428.242C820.441 438.172 808.673 444 796.189 444H765.752C754.449 444 743.673 439.218 736.09 430.837L713.31 405.658C695.31 385.763 662.455 393.407 655.085 419.204C650.891 433.881 637.476 444 622.211 444H538.667C534.253 444 529.869 443.269 525.694 441.838L418.486 405.081C405.505 400.63 392 410.277 392 424C392 435.046 383.046 444 372 444H241.514C233.112 444 225.309 439.653 220.887 432.51L210.422 415.604C200.562 399.677 176 406.664 176 425.396C176 435.671 167.671 444 157.396 444H40C17.9086 444 0 426.091 0 404Z" fill="#EC1D28"/>
<path d="M360.5 351C360.167 355 359.667 359.167 359 363.5C358.333 367.833 357.167 371.833 355.5 375.5C353.833 379.5 351.667 382.5 349 384.5C345.333 387.833 341 389.667 336 390C331.333 391.667 326.833 392.167 322.5 391.5C318.167 390.833 314.167 389.667 310.5 388C305.833 385 302.333 381.5 300 377.5C298 373.167 296.5 368.667 295.5 364C294.5 359.333 294 354.5 294 349.5C294 344.5 294 339.833 294 335.5V296.5L293.5 220C293.5 214.667 293.5 210.5 293.5 207.5C293.5 204.5 293.5 201.833 293.5 199.5C293.5 196.833 293.333 194 293 191C293 187.667 293 183 293 177C293 176 293 174.333 293 172C293.333 169.333 293.167 162.5 292.5 151.5C279.5 173.167 268.667 190.667 260 204C251.667 217 244.5 227.167 238.5 234.5C232.833 241.5 227.833 246.333 223.5 249C219.167 251.333 214.667 252.667 210 253C207.333 253.333 204.667 252.833 202 251.5C199.333 250.167 196.667 248.5 194 246.5C191.667 244.5 189.333 242.5 187 240.5C185 238.167 183.333 236 182 234C174 224 165 212 155 198C145 184 134.667 167 124 147C124 147.333 123.833 152.833 123.5 163.5C123.5 174.167 123.5 187.5 123.5 203.5C123.5 219.167 123.333 236.167 123 254.5C123 272.5 122.833 289.333 122.5 305C122.5 320.667 122.333 333.833 122 344.5C121.667 354.833 121.333 360 121 360C121 365.667 119.667 371 117 376C114.333 380.667 110.667 384.5 106 387.5C101.667 390.5 96.5 392.167 90.5 392.5C84.5 392.833 78 391.167 71 387.5C66.6667 384.833 63.3333 381 61 376C59 371 57.6667 366.333 57 362C56.6667 357.333 56.3333 352.833 56 348.5C56 344.167 56 339.667 56 335L56.5 296L57 219V152C57 123 58 94.5 60 66.5C60 62.8334 60.3333 59.5 61 56.5C62 53.1667 63.1667 50 64.5 47C67.1667 41.6667 70.6667 37.6667 75 35C80 32 85.3333 30.5 91 30.5C93.3333 30.5 95.5 30.6667 97.5 31C99.8333 31 102 31.1667 104 31.5C110.667 32.8334 116.333 36.8334 121 43.5C126 49.8333 130.667 55.3333 135 60C137.667 63 140.5 66.6667 143.5 71C146.5 75.3334 149.5 79.8334 152.5 84.5C155.5 89.1667 158.333 93.6667 161 98C163.667 102.333 166 106.167 168 109.5C176.667 123.5 184.333 136.333 191 148C198 159.667 204.5 169.667 210.5 178C211.5 177 212.667 175.667 214 174C215.333 172 216.667 170 218 168C219.667 165.667 221 163.5 222 161.5C223.333 159.5 224.333 157.833 225 156.5C228.333 151.167 231.667 146 235 141C238.333 135.667 241.833 130.167 245.5 124.5C249.5 118.5 253.5 112 257.5 105C261.833 98 266.833 90 272.5 81C274.833 77 277.833 72.1667 281.5 66.5C285.167 60.8333 289.333 55.3333 294 50C298.667 44.6667 303.5 40.1667 308.5 36.5C313.833 32.5 319.167 30.5 324.5 30.5C327.167 30.5 329.5 30.6667 331.5 31C333.5 31 335.5 31.1667 337.5 31.5C341.5 31.8333 345.333 33.6667 349 37C351.667 39.6667 353.667 42.5 355 45.5C356.333 49.8334 357.167 53.5 357.5 56.5C357.833 58.8333 358 61 358 63C358.333 65 358.5 67 358.5 69C358.5 87.6667 358.667 106.167 359 124.5C359.333 142.833 359.5 161.333 359.5 180C359.5 202.667 359.5 226 359.5 250C359.833 274 360 297.333 360 320C360 324.667 360.167 329.667 360.5 335C360.833 340.333 360.833 345.667 360.5 351Z" fill="white"/>
<path d="M881.5 168C882.833 172 883.167 176.5 882.5 181.5C881.833 186.5 880.667 191.667 879 197C877.333 202 875.333 207 873 212C871 216.667 869.167 220.833 867.5 224.5C858.833 242.167 850.667 259.5 843 276.5C835.333 293.5 826.333 312 816 332C814 336 811.667 340.833 809 346.5C806.667 351.833 804 357.167 801 362.5C798 367.5 794.667 372.167 791 376.5C787.667 380.833 784 384 780 386C776.667 388 773.333 388.833 770 388.5C767.333 389.167 764.333 388.333 761 386C757 384 753.167 380.833 749.5 376.5C746.167 372.167 743 367.5 740 362.5C737 357.167 734.167 351.833 731.5 346.5C729.167 340.833 727 336 725 332C721 324.333 717.167 317.167 713.5 310.5C710.167 303.833 706.5 296.667 702.5 289C698.833 281 694.667 272 690 262C685.333 251.667 679.833 239.167 673.5 224.5C671.833 220.5 670 216.333 668 212C666 207.667 664.167 203 662.5 198C661.167 193 660.167 188 659.5 183C659.167 177.667 659.5 172.333 660.5 167C661.5 162 664 158 668 155C672 152 676.5 150 681.5 149C686.5 148 691.5 148.167 696.5 149.5C701.5 150.5 705.5 152.667 708.5 156C711.5 159 714.333 163 717 168C719.667 173 722.167 178.333 724.5 184C727.167 189.333 729.5 194.833 731.5 200.5C733.833 205.833 736 210.5 738 214.5C742.667 224.167 747.833 234.667 753.5 246C759.5 257.333 764.833 267.833 769.5 277.5C772.833 269.833 775.833 263.5 778.5 258.5C781.167 253.167 783.667 248 786 243C788.667 238 791.333 232.5 794 226.5C797 220.5 800.667 212.833 805 203.5C809 194.833 813 186.333 817 178C821.333 169.667 826.5 162.333 832.5 156C835.5 152.667 839.333 150.5 844 149.5C848.667 148.167 853.5 148 858.5 149C863.5 150 868 152.167 872 155.5C876.333 158.5 879.5 162.667 881.5 168Z" fill="white"/>
<path d="M1156.66 48C1159.66 52 1161.49 56.6667 1162.16 62C1162.16 64 1161.99 66 1161.66 68C1161.66 69.6667 1161.49 71.3333 1161.16 73C1160.83 76.6667 1158.66 80.1667 1154.66 83.5C1152.33 85.1666 1149.33 86.8333 1145.66 88.5C1143.66 89.1667 1141.49 89.6667 1139.16 90C1137.16 90 1134.83 90.1667 1132.16 90.5C1130.16 91.1667 1127.99 91.5 1125.66 91.5C1123.33 91.5 1120.99 91.5 1118.66 91.5H1096.16L991.66 92V93.5L991.16 175C993.827 175 996.66 175 999.66 175C1002.99 175 1006.99 174.833 1011.66 174.5C1024.99 174.5 1036.83 174.5 1047.16 174.5C1057.83 174.5 1069.49 174.667 1082.16 175H1085.16C1088.83 175 1092.49 175.167 1096.16 175.5C1100.16 175.5 1104.16 175.5 1108.16 175.5C1111.83 175.833 1115.49 176.333 1119.16 177C1122.83 177.333 1126.49 178.167 1130.16 179.5C1136.16 181.5 1140.49 184.667 1143.16 189C1146.83 193.333 1148.66 197.833 1148.66 202.5C1148.66 204.5 1148.66 206.5 1148.66 208.5C1148.66 210.167 1148.33 212 1147.66 214C1147.33 216.667 1145.16 220 1141.16 224C1138.49 226.333 1135.33 227.833 1131.66 228.5C1129.99 229.167 1127.99 229.833 1125.66 230.5C1123.66 230.833 1121.49 231.167 1119.16 231.5C1116.83 231.833 1114.49 232.167 1112.16 232.5C1110.16 232.5 1107.83 232.5 1105.16 232.5H1082.16L990.16 233L988.66 349V353C988.66 354.667 988.493 356.333 988.16 358C988.16 359.333 987.993 360.833 987.66 362.5C986.993 364.167 986.327 366 985.66 368C985.327 369.667 984.827 371.333 984.16 373C981.827 377.667 979.66 380.833 977.66 382.5C973.993 385.167 969.493 387 964.16 388C955.16 390 946.66 389 938.66 385C936.993 384 935.327 382.833 933.66 381.5C932.327 379.833 931.16 377.833 930.16 375.5C929.493 374.167 929.16 373.167 929.16 372.5L927.66 369.5C926.66 367.833 925.993 366.167 925.66 364.5C925.327 362.5 924.993 360.667 924.66 359C924.66 357.333 924.493 355.667 924.16 354C924.16 352.333 923.993 350.667 923.66 349C923.327 346.333 923.327 343.667 923.66 341V333L924.16 294L924.66 222C924.993 211.333 925.16 200.5 925.16 189.5C925.16 178.5 925.16 167.167 925.16 155.5C924.827 143.5 924.66 132.833 924.66 123.5C924.993 114.167 925.493 104 926.16 93V90.5C926.493 86.8333 926.66 83.5 926.66 80.5C926.66 77.1667 926.993 73.8333 927.66 70.5C928.327 63.1667 929.993 56.6667 932.66 51C934.993 45.3333 938.327 41.3333 942.66 39C947.66 36 952.993 34.5 958.66 34.5C961.327 34.5 963.493 34.6667 965.16 35V34.5C971.16 34.5 975.993 34.5 979.66 34.5C983.327 34.5 986.827 34.5 990.16 34.5C993.493 34.5 997.16 34.5 1001.16 34.5C1005.16 34.1667 1010.49 34 1017.16 34C1043.83 33.6667 1070.16 33.6667 1096.16 34H1098.66C1102.33 34.3333 1105.99 34.5 1109.66 34.5C1113.66 34.5 1117.66 34.6667 1121.66 35C1125.33 35 1128.99 35.5 1132.66 36.5C1136.33 37.1667 1139.99 38.1666 1143.66 39.5C1149.33 41.1667 1153.66 44 1156.66 48Z" fill="white"/>
<path d="M1195.63 210C1195.63 206 1195.63 201.5 1195.63 196.5C1195.63 191.167 1195.8 185.833 1196.13 180.5C1196.47 174.833 1196.97 169.5 1197.63 164.5C1198.63 159.167 1199.97 154.5 1201.63 150.5C1204.3 144.5 1208.47 140.5 1214.13 138.5C1219.8 136.167 1225.97 135.167 1232.63 135.5C1239.63 135.5 1245.13 136.667 1249.13 139C1253.13 141.333 1256.13 144.5 1258.13 148.5C1260.13 152.167 1261.3 156.5 1261.63 161.5C1262.3 166.167 1262.63 171.167 1262.63 176.5C1265.63 171.167 1269.63 166.833 1274.63 163.5C1279.97 160.167 1285.3 157.5 1290.63 155.5C1295.97 153.5 1300.8 152.167 1305.13 151.5C1309.47 150.5 1311.97 150 1312.63 150C1320.97 149.333 1328.47 149.167 1335.13 149.5C1342.13 149.833 1349.8 151.333 1358.13 154C1363.47 156 1368.97 158.833 1374.63 162.5C1380.3 165.833 1385.3 169.833 1389.63 174.5C1393.97 179.167 1396.8 184.333 1398.13 190C1399.8 195.333 1399.13 201 1396.13 207C1391.47 215.333 1386.3 219.5 1380.63 219.5C1374.97 219.167 1368.8 218.167 1362.13 216.5C1358.47 215.833 1354.13 214.333 1349.13 212C1344.13 209.667 1339.8 208.167 1336.13 207.5C1324.8 205.833 1314.8 206.667 1306.13 210C1297.47 213.333 1289.97 217.333 1283.63 222C1276.3 227.667 1269.97 234.167 1264.63 241.5V313.5C1264.63 322.5 1264.47 331.833 1264.13 341.5C1264.13 351.167 1262.8 360 1260.13 368C1257.8 375.667 1253.63 382 1247.63 387C1241.97 391.667 1233.63 393.667 1222.63 393C1216.63 392.667 1211.3 389.833 1206.63 384.5C1201.97 378.833 1199.13 373.333 1198.13 368C1197.47 363 1196.97 357 1196.63 350C1196.3 343 1195.97 335.667 1195.63 328C1195.63 320.333 1195.63 312.667 1195.63 305C1195.63 297 1195.63 289.667 1195.63 283V210Z" fill="white"/>
<path d="M1582.49 318.5C1586.49 317.5 1590.49 316.833 1594.49 316.5C1598.82 316.167 1602.65 316.667 1605.99 318C1609.65 319.333 1612.65 321.667 1614.99 325C1617.32 328 1618.49 332.333 1618.49 338C1618.49 342 1617.49 345.833 1615.49 349.5C1613.49 353.167 1610.99 356.5 1607.99 359.5C1604.99 362.5 1601.65 365.167 1597.99 367.5C1594.32 369.5 1590.82 371.167 1587.49 372.5C1577.82 376.833 1566.65 380.167 1553.99 382.5C1541.65 384.833 1528.82 385.667 1515.49 385C1497.49 384.333 1480.15 380.833 1463.49 374.5C1447.15 367.833 1434.32 357 1424.99 342C1416.32 327.333 1411.15 311 1409.49 293C1407.82 275 1408.65 258 1411.99 242C1415.65 222.667 1421.82 207 1430.49 195C1439.49 182.667 1450.15 172.833 1462.49 165.5C1477.49 156.833 1494.32 152.333 1512.99 152C1531.65 151.667 1549.49 155.333 1566.49 163C1577.82 168 1587.99 174.833 1596.99 183.5C1605.99 191.833 1612.82 202 1617.49 214C1618.82 217 1619.82 220.667 1620.49 225C1621.49 229.333 1622.15 234 1622.49 239C1622.82 243.667 1622.82 248.333 1622.49 253C1622.15 257.667 1621.32 261.833 1619.99 265.5C1617.99 271.5 1615.49 276.167 1612.49 279.5C1609.49 282.833 1605.65 285.333 1600.99 287C1596.32 288.667 1590.65 289.833 1583.99 290.5C1577.65 290.833 1569.99 291.167 1560.99 291.5C1552.99 291.833 1545.49 292 1538.49 292C1531.49 292 1524.32 292 1516.99 292C1509.65 291.667 1501.99 291.5 1493.99 291.5C1486.32 291.167 1477.65 290.833 1467.99 290.5C1466.99 297.167 1467.82 303 1470.49 308C1473.49 312.667 1477.49 316.667 1482.49 320C1487.49 323 1493.15 325.333 1499.49 327C1505.82 328.667 1511.99 329.667 1517.99 330C1529.32 330.667 1540.15 329.833 1550.49 327.5C1560.82 324.833 1571.49 321.833 1582.49 318.5ZM1560.99 221.5C1554.65 214.167 1547.99 208.833 1540.99 205.5C1535.65 203.167 1529.99 202.167 1523.99 202.5C1518.32 202.5 1512.82 203.333 1507.49 205C1497.82 207.333 1489.65 212.333 1482.99 220C1482.32 220.667 1481.15 222.333 1479.49 225C1477.82 227.333 1476.15 229.833 1474.49 232.5C1473.15 235.167 1472.15 237.667 1471.49 240C1470.82 242.333 1471.15 243.5 1472.49 243.5H1570.49C1570.15 238.833 1569.32 235 1567.99 232C1566.65 228.667 1564.32 225.167 1560.99 221.5Z" fill="white"/>
<path d="M1835.91 318.5C1839.91 317.5 1843.91 316.833 1847.91 316.5C1852.24 316.167 1856.07 316.667 1859.41 318C1863.07 319.333 1866.07 321.667 1868.41 325C1870.74 328 1871.91 332.333 1871.91 338C1871.91 342 1870.91 345.833 1868.91 349.5C1866.91 353.167 1864.41 356.5 1861.41 359.5C1858.41 362.5 1855.07 365.167 1851.41 367.5C1847.74 369.5 1844.24 371.167 1840.91 372.5C1831.24 376.833 1820.07 380.167 1807.41 382.5C1795.07 384.833 1782.24 385.667 1768.91 385C1750.91 384.333 1733.57 380.833 1716.91 374.5C1700.57 367.833 1687.74 357 1678.41 342C1669.74 327.333 1664.57 311 1662.91 293C1661.24 275 1662.07 258 1665.41 242C1669.07 222.667 1675.24 207 1683.91 195C1692.91 182.667 1703.57 172.833 1715.91 165.5C1730.91 156.833 1747.74 152.333 1766.41 152C1785.07 151.667 1802.91 155.333 1819.91 163C1831.24 168 1841.41 174.833 1850.41 183.5C1859.41 191.833 1866.24 202 1870.91 214C1872.24 217 1873.24 220.667 1873.91 225C1874.91 229.333 1875.57 234 1875.91 239C1876.24 243.667 1876.24 248.333 1875.91 253C1875.57 257.667 1874.74 261.833 1873.41 265.5C1871.41 271.5 1868.91 276.167 1865.91 279.5C1862.91 282.833 1859.07 285.333 1854.41 287C1849.74 288.667 1844.07 289.833 1837.41 290.5C1831.07 290.833 1823.41 291.167 1814.41 291.5C1806.41 291.833 1798.91 292 1791.91 292C1784.91 292 1777.74 292 1770.41 292C1763.07 291.667 1755.41 291.5 1747.41 291.5C1739.74 291.167 1731.07 290.833 1721.41 290.5C1720.41 297.167 1721.24 303 1723.91 308C1726.91 312.667 1730.91 316.667 1735.91 320C1740.91 323 1746.57 325.333 1752.91 327C1759.24 328.667 1765.41 329.667 1771.41 330C1782.74 330.667 1793.57 329.833 1803.91 327.5C1814.24 324.833 1824.91 321.833 1835.91 318.5ZM1814.41 221.5C1808.07 214.167 1801.41 208.833 1794.41 205.5C1789.07 203.167 1783.41 202.167 1777.41 202.5C1771.74 202.5 1766.24 203.333 1760.91 205C1751.24 207.333 1743.07 212.333 1736.41 220C1735.74 220.667 1734.57 222.333 1732.91 225C1731.24 227.333 1729.57 229.833 1727.91 232.5C1726.57 235.167 1725.57 237.667 1724.91 240C1724.24 242.333 1724.57 243.5 1725.91 243.5H1823.91C1823.57 238.833 1822.74 235 1821.41 232C1820.07 228.667 1817.74 225.167 1814.41 221.5Z" fill="white"/>
<path d="M500.8 313L559.3 275.5C562.1 273.7 563.5 271.2 563.5 268C563.5 264.8 562.1 262.3 559.3 260.5L500.8 223C497.8 221 494.748 220.848 491.644 222.544C488.54 224.24 486.992 226.892 487 230.5V305.5C487 309.1 488.552 311.752 491.656 313.456C494.76 315.16 497.808 315.008 500.8 313ZM517 388C500.4 388 484.8 384.848 470.2 378.544C455.6 372.24 442.9 363.692 432.1 352.9C421.3 342.1 412.752 329.4 406.456 314.8C400.16 300.2 397.008 284.6 397 268C397 251.4 400.152 235.8 406.456 221.2C412.76 206.6 421.308 193.9 432.1 183.1C442.9 172.3 455.6 163.752 470.2 157.456C484.8 151.16 500.4 148.008 517 148C533.6 148 549.2 151.152 563.8 157.456C578.4 163.76 591.1 172.308 601.9 183.1C612.7 193.9 621.252 206.6 627.556 221.2C633.86 235.8 637.008 251.4 637 268C637 284.6 633.848 300.2 627.544 314.8C621.24 329.4 612.692 342.1 601.9 352.9C591.1 363.7 578.4 372.252 563.8 378.556C549.2 384.86 533.6 388.008 517 388Z" fill="white"/>
</svg>
