<svg xmlns="http://www.w3.org/2000/svg"  viewBox="0 0 24 24" width="1024px" height="1024px"><path fill="#ED1D24" d="M11.672,4.017C6.855,4.19,3,8.14,3,13c0,2.129,0.743,4.083,1.98,5.624L11.672,4.017z"/><path fill="#ED1D24" d="M16.949,5.487v6.964c0,0.445-0.539,0.669-0.854,0.354l-1.859-1.859c-0.188-0.188-0.293-0.442-0.293-0.707V6.066L10.677,14 H14v-2l2.387,2.387c0.352,0.352,0.391,0.909,0.093,1.307L14,19v-2H9.442l-1.632,3.962C9.062,21.622,10.486,22,12,22 c4.971,0,9-4.029,9-9C21,9.859,19.388,7.097,16.949,5.487z M16.949,18.066c0,0.552-0.448,1-1,1h-0.755l1.755-2.34V18.066z"/><g><path d="M16.48,15.694c0.299-0.398,0.259-0.955-0.093-1.307L14,12v2h-3.323l3.267-7.934v4.172c0,0.265,0.105,0.52,0.293,0.707 l1.859,1.859c0.315,0.315,0.854,0.092,0.854-0.354V2.066c0-0.552-0.448-1-1-1h-2.284c-0.391,0-0.746,0.228-0.909,0.583l-9.163,20 c-0.303,0.662,0.181,1.417,0.909,1.417h1.772c0.405,0,0.77-0.245,0.925-0.619L9.442,17H14v2L16.48,15.694z" fill="#F0F0F0"/><path fill="#F0F0F0" d="M15.949,19.066c0.552,0,1-0.448,1-1v-1.34l-1.755,2.34H15.949z"/></g></svg>